<?xml version="1.0" encoding="iso-8859-1"?>
<!-- Generator: Adobe Illustrator 19.0.0, SVG Export Plug-In . SVG Version: 6.00 Build 0)  -->
<svg version="1.1" id="Layer_1" xmlns="http://www.w3.org/2000/svg" xmlns:xlink="http://www.w3.org/1999/xlink" x="0px" y="0px"
	 viewBox="0 0 512 512" style="enable-background:new 0 0 512 512;" xml:space="preserve">
<g transform="translate(1 1)">
	<path style="fill:#54C9FD;" d="M348.867,7.533c9.387,0,17.067,7.68,17.067,17.067v128H144.067v-128
		c0-9.387,7.68-17.067,17.067-17.067H348.867z"/>
	<path style="fill:#FCC309;" d="M135.533,229.4h238.933v-76.8H135.533V229.4z"/>
	<path style="fill:#FFDD09;" d="M255,451.267c-14.507,0-25.6-11.093-25.6-25.6s11.093-25.6,25.6-25.6s25.6,11.093,25.6,25.6
		S269.507,451.267,255,451.267L255,451.267z M144.067,229.4V255c0,33.28,26.453,59.733,59.733,59.733l0,0
		c-6.827,35.84-8.533,91.307-8.533,127.147c0,32.427,25.6,60.587,58.027,60.587c0.853,0,2.56,0,3.413,0
		c32.427-0.853,58.027-28.16,58.027-60.587c0-34.987-1.707-90.453-8.533-127.147l0,0c33.28,0,59.733-26.453,59.733-59.733v-25.6
		H144.067z"/>
	<path style="fill:#FFFFFF;" d="M169.667,255v-25.6h-25.6V255c0,33.28,26.453,59.733,59.733,59.733h18.773
		C193.56,314.733,169.667,288.28,169.667,255"/>
	<path style="fill:#FD9808;" d="M340.333,229.4V255c0,33.28-23.893,59.733-52.907,59.733H306.2c33.28,0,59.733-26.453,59.733-59.733
		v-25.6H340.333z"/>
	<path style="fill:#FFFFFF;" d="M185.027,7.533h-23.893c-9.387,0-17.067,7.68-17.067,17.067v128h25.6v-128
		C169.667,15.213,176.493,7.533,185.027,7.533"/>
	<path style="fill:#33A9F8;" d="M348.867,7.533h-23.893c8.533,0,15.36,7.68,15.36,17.067v128h25.6v-128
		C365.933,15.213,358.253,7.533,348.867,7.533"/>
	<path style="fill:#FFFFFF;" d="M135.533,229.4h25.6v-76.8h-25.6V229.4z"/>
	<path style="fill:#FD9808;" d="M348.867,229.4h25.6v-76.8h-25.6V229.4z"/>
	<path d="M365.933,161.133H144.067c-5.12,0-8.533-3.413-8.533-8.533v-128c0-14.507,11.093-25.6,25.6-25.6h187.733
		c14.507,0,25.6,11.093,25.6,25.6v128C374.467,157.72,371.053,161.133,365.933,161.133z M152.6,144.067h204.8V24.6
		c0-5.12-3.413-8.533-8.533-8.533H161.133c-4.267,0-8.533,4.267-8.533,8.533V144.067z"/>
	<path d="M374.467,237.933H135.533c-5.12,0-8.533-3.413-8.533-8.533v-76.8c0-5.12,3.413-8.533,8.533-8.533h238.933
		c5.12,0,8.533,3.413,8.533,8.533v76.8C383,234.52,379.587,237.933,374.467,237.933z M144.067,220.867h221.867v-59.733H144.067
		V220.867z"/>
	<path d="M203.8,280.6h-57.173c-5.12,0-8.533-3.413-8.533-8.533s3.413-8.533,8.533-8.533H203.8c5.12,0,8.533,3.413,8.533,8.533
		S208.92,280.6,203.8,280.6z"/>
	<path d="M186.733,101.4c-5.12,0-8.533-3.413-8.533-8.533V7.533c0-5.12,3.413-8.533,8.533-8.533c5.12,0,8.533,3.413,8.533,8.533
		v85.333C195.267,97.987,191.853,101.4,186.733,101.4z"/>
	<path d="M220.867,127c-5.12,0-8.533-3.413-8.533-8.533V7.533c0-5.12,3.413-8.533,8.533-8.533c5.12,0,8.533,3.413,8.533,8.533
		v110.933C229.4,123.587,225.987,127,220.867,127z"/>
	<path d="M255,101.4c-5.12,0-8.533-3.413-8.533-8.533V7.533C246.467,2.413,249.88-1,255-1s8.533,3.413,8.533,8.533v85.333
		C263.533,97.987,260.12,101.4,255,101.4z"/>
	<path d="M289.133,127c-5.12,0-8.533-3.413-8.533-8.533V7.533c0-5.12,3.413-8.533,8.533-8.533c5.12,0,8.533,3.413,8.533,8.533
		v110.933C297.667,123.587,294.253,127,289.133,127z"/>
	<path d="M323.267,101.4c-5.12,0-8.533-3.413-8.533-8.533V7.533c0-5.12,3.413-8.533,8.533-8.533c5.12,0,8.533,3.413,8.533,8.533
		v85.333C331.8,97.987,328.387,101.4,323.267,101.4z"/>
	<path d="M255,459.8c-18.773,0-34.133-15.36-34.133-34.133s15.36-34.133,34.133-34.133s34.133,15.36,34.133,34.133
		S273.773,459.8,255,459.8z M255,408.6c-9.387,0-17.067,7.68-17.067,17.067s7.68,17.067,17.067,17.067s17.067-7.68,17.067-17.067
		S264.387,408.6,255,408.6z"/>
	<path d="M255,511c-0.853,0-1.707,0-1.707,0c-36.693-0.853-66.56-31.573-66.56-69.12c0-51.2,2.56-91.307,6.827-119.467
		c-32.427-5.12-58.027-33.28-58.027-67.413v-25.6c0-5.12,3.413-8.533,8.533-8.533h221.867c5.12,0,8.533,3.413,8.533,8.533V255
		c0,34.133-25.6,62.293-58.027,67.413c4.267,28.16,6.827,68.267,6.827,119.467c0,37.547-29.867,69.12-66.56,69.12
		C256.707,511,255.853,511,255,511z M212.333,317.293c-5.12,27.307-7.68,69.12-8.533,124.587c0,28.16,22.187,52.053,49.493,52.053
		c0.853,0,2.56,0,2.56,0c27.307-0.853,50.347-23.893,49.493-52.053c0-56.32-3.413-98.133-8.533-125.44
		c-0.853-2.56,0-5.12,1.707-6.827c1.707-1.707,4.267-3.413,6.827-3.413c28.16,0,51.2-23.04,51.2-51.2v-17.067H152.6V255
		c0,28.16,23.04,51.2,51.2,51.2c5.12,0,8.533,3.413,8.533,8.533C212.333,315.587,212.333,316.44,212.333,317.293z"/>
</g>
<g>
</g>
<g>
</g>
<g>
</g>
<g>
</g>
<g>
</g>
<g>
</g>
<g>
</g>
<g>
</g>
<g>
</g>
<g>
</g>
<g>
</g>
<g>
</g>
<g>
</g>
<g>
</g>
<g>
</g>
</svg>
