<?xml version="1.0" standalone="no"?>
<!DOCTYPE svg PUBLIC "-//W3C//DTD SVG 20010904//EN"
 "http://www.w3.org/TR/2001/REC-SVG-20010904/DTD/svg10.dtd">
<svg version="1.0" xmlns="http://www.w3.org/2000/svg"
 width="50.000000pt" height="50.000000pt" viewBox="0 0 50.000000 50.000000"
 preserveAspectRatio="xMidYMid meet">
<metadata>
Created by potrace 1.16, written by Peter Selinger 2001-2019
</metadata>
<g transform="translate(0.000000,50.000000) scale(0.100000,-0.100000)"
fill="#000000" stroke="none">
<path d="M144 347 c-2 -7 -3 -56 -2 -108 l3 -94 105 0 105 0 0 105 0 105 -103
3 c-79 2 -104 0 -108 -11z m206 -97 l0 -100 -100 0 -100 0 0 100 0 100 100 0
100 0 0 -100z"/>
<path d="M161 250 l-1 -90 90 0 90 0 -1 90 -2 90 -87 0 -87 0 -2 -90z m167
-32 l3 -48 -80 0 -81 0 0 43 c0 24 3 47 7 50 3 4 38 6 77 4 l71 -2 3 -47z"/>
</g>
</svg>
